<?xml version="1.0" encoding="UTF-8"?>
<svg version="1.1" xmlns="http://www.w3.org/2000/svg" width="400" height="400">
<path d="M0 0 C1.16523193 0.0616333 1.16523193 0.0616333 2.35400391 0.12451172 C42.97936678 2.45382818 82.93758017 16.11176224 114 43 C114.76957031 43.66 115.53914063 44.32 116.33203125 45 C118.93469582 47.28731749 121.47406712 49.62813111 124 52 C124.52609863 52.49209961 125.05219727 52.98419922 125.59423828 53.49121094 C140.6949506 67.73288764 152.29279096 83.67885878 162 102 C162.37495605 102.70592285 162.74991211 103.4118457 163.13623047 104.13916016 C177.35247568 131.39393539 184.71002752 164.25588826 183 195 C182.9383667 196.16523193 182.9383667 196.16523193 182.87548828 197.35400391 C180.54617182 237.97936678 166.88823776 277.93758017 140 309 C139.34 309.76957031 138.68 310.53914063 138 311.33203125 C135.71268251 313.93469582 133.37186889 316.47406712 131 319 C130.50790039 319.52609863 130.01580078 320.05219727 129.50878906 320.59423828 C115.26711236 335.6949506 99.32114122 347.29279096 81 357 C80.29407715 357.37495605 79.5881543 357.74991211 78.86083984 358.13623047 C51.60606461 372.35247568 18.74411174 379.71002752 -12 378 C-13.16523193 377.9383667 -13.16523193 377.9383667 -14.35400391 377.87548828 C-54.97936678 375.54617182 -94.93758017 361.88823776 -126 335 C-126.76957031 334.34 -127.53914063 333.68 -128.33203125 333 C-130.93469582 330.71268251 -133.47406712 328.37186889 -136 326 C-136.52609863 325.50790039 -137.05219727 325.01580078 -137.59423828 324.50878906 C-152.6949506 310.26711236 -164.29279096 294.32114122 -174 276 C-174.37495605 275.29407715 -174.74991211 274.5881543 -175.13623047 273.86083984 C-189.35247568 246.60606461 -196.71002752 213.74411174 -195 183 C-194.95891113 182.22317871 -194.91782227 181.44635742 -194.87548828 180.64599609 C-192.54617182 140.02063322 -178.88823776 100.06241983 -152 69 C-151.34 68.23042969 -150.68 67.46085937 -150 66.66796875 C-147.71268251 64.06530418 -145.37186889 61.52593288 -143 59 C-142.50790039 58.47390137 -142.01580078 57.94780273 -141.50878906 57.40576172 C-127.26711236 42.3050494 -111.32114122 30.70720904 -93 21 C-92.29407715 20.62504395 -91.5881543 20.25008789 -90.86083984 19.86376953 C-63.60606461 5.64752432 -30.74411174 -1.71002752 0 0 Z " fill="#F16725" transform="translate(206,11)"/>
<path d="M0 0 C1.60692313 0.00112924 3.21384833 0.00049312 4.82077026 -0.00177002 C9.16957275 -0.00291511 13.51793164 0.02056081 17.86663127 0.04852581 C22.41631859 0.07357373 26.96601669 0.07588414 31.51576233 0.08062744 C40.12524866 0.09304726 48.73453122 0.1258554 57.34392792 0.1660254 C67.14798615 0.21077405 76.95205425 0.23273793 86.75618923 0.25280714 C106.91840895 0.29458898 127.08034941 0.3679289 147.24243164 0.45410156 C147.24243164 20.25410156 147.24243164 40.05410156 147.24243164 60.45410156 C129.42243164 60.45410156 111.60243164 60.45410156 93.24243164 60.45410156 C93.24243164 79.59410156 93.24243164 98.73410156 93.24243164 118.45410156 C76.74243164 118.45410156 60.24243164 118.45410156 43.24243164 118.45410156 C43.24243164 137.26410156 43.24243164 156.07410156 43.24243164 175.45410156 C35.69397957 175.55920068 28.14820405 175.65933471 20.59965515 175.71285248 C17.08393792 175.73916678 13.5688315 175.77427959 10.0534668 175.83129883 C6.01223111 175.89643136 1.97163393 175.92035774 -2.07006836 175.94238281 C-3.31933105 175.96818924 -4.56859375 175.99399567 -5.85571289 176.02058411 C-12.15247935 176.02259831 -16.82104828 175.71139879 -22.09814453 172.11662292 C-26.42865006 167.77803393 -28.25681489 164.08799932 -28.27223206 157.97120667 C-28.28495651 156.68570923 -28.29768097 155.40021179 -28.31079102 154.07575989 C-28.30460945 152.66354185 -28.29800349 151.25132561 -28.29101562 149.83911133 C-28.29807795 148.34220531 -28.30682429 146.84530644 -28.31712341 145.34841919 C-28.33959275 141.29253131 -28.33668349 137.23703412 -28.32780194 133.18110776 C-28.32268546 129.79145194 -28.32998999 126.4018691 -28.33727401 123.0122208 C-28.35426534 115.01386008 -28.35071511 107.01569017 -28.33398438 99.01733398 C-28.31706343 90.77379597 -28.33289869 82.5307875 -28.36520725 74.28730732 C-28.39192255 67.20174548 -28.39917396 60.11634829 -28.39069217 53.03074116 C-28.3857686 48.80230674 -28.38794744 44.57419088 -28.40847969 40.34579659 C-28.42686752 36.36876941 -28.42084109 32.39250249 -28.39628029 28.4155159 C-28.39128212 26.95909057 -28.39473644 25.50260701 -28.40742874 24.04622841 C-28.51699369 10.39002726 -28.51699369 10.39002726 -24.25195312 5.7581892 C-16.81828474 -0.72886505 -9.4415227 -0.09282577 0 0 Z " fill="#FEFEFE" transform="translate(152.757568359375,124.5458984375)"/>
<path d="M0 0 C31.35 0 62.7 0 95 0 C95 19.14 95 38.28 95 58 C78.5 58 62 58 45 58 C45 76.81 45 95.62 45 115 C44.67 115 44.34 115 44 115 C43.67 100.15 43.34 85.3 43 70 C24.80160933 62.72064373 10.98368458 60.41551344 -8.13842773 59.24951172 C-11.1298949 58.98867395 -14.04540064 58.53023554 -17 58 C-17 57.67 -17 57.34 -17 57 C19.63 57 56.26 57 94 57 C94 45.45 94 33.9 94 22 C90.66254614 20.33127307 87.31543962 18.70930704 83.9375 17.125 C82.89464844 16.63257813 81.85179687 16.14015625 80.77734375 15.6328125 C72.55347221 11.97001257 64.17265143 9.30837715 55.375 7.4375 C54.39571533 7.22770508 53.41643066 7.01791016 52.4074707 6.80175781 C35.1461541 3.25354514 17.59223868 1.6515644 0 1 C0 0.67 0 0.34 0 0 Z " fill="#D2CCBC" transform="translate(151,185)"/>
<path d="M0 0 C0.33 0 0.66 0 1 0 C1 11.55 1 23.1 1 35 C-15.5 35 -32 35 -49 35 C-49 53.81 -49 72.62 -49 92 C-49.33 92 -49.66 92 -50 92 C-50.33 77.15 -50.66 62.3 -51 47 C-69.19839067 39.72064373 -83.01631542 37.41551344 -102.13842773 36.24951172 C-105.1298949 35.98867395 -108.04540064 35.53023554 -111 35 C-111 34.67 -111 34.34 -111 34 C-74.37 34 -37.74 34 0 34 C0 22.78 0 11.56 0 0 Z " fill="#E2D4C5" transform="translate(245,208)"/>
</svg>
